<?xml version="1.0" encoding="utf-8"?>
<!-- Generator: Adobe Illustrator 16.0.0, SVG Export Plug-In . SVG Version: 6.00 Build 0)  -->
<!DOCTYPE svg PUBLIC "-//W3C//DTD SVG 1.1//EN" "http://www.w3.org/Graphics/SVG/1.1/DTD/svg11.dtd">
<svg version="1.1" id="Vrstva_1" xmlns="http://www.w3.org/2000/svg" xmlns:xlink="http://www.w3.org/1999/xlink" x="0px" y="0px"
	 width="50.264px" height="49.755px" viewBox="0 0 50.264 49.755" enable-background="new 0 0 50.264 49.755" xml:space="preserve">
<g>
	<path fill="none" stroke="#FFFFFF" stroke-width="5" stroke-linejoin="round" stroke-miterlimit="10" d="M43.828,15.508
		L32.02,1.619 M6.436,15.508L18.244,1.619 M45.796,23.444H4.468c-1.087,0-1.968-0.889-1.968-1.983v-3.969
		c0-1.097,0.881-1.984,1.968-1.984h41.328c1.087,0,1.968,0.888,1.968,1.984v3.969C47.764,22.556,46.883,23.444,45.796,23.444z
		 M34.851,47.255H15.414c-1.807,0-3.381-1.24-3.819-3.006L6.436,23.444h37.392L38.669,44.25
		C38.23,46.015,36.656,47.255,34.851,47.255z"/>
</g>
</svg>
