<?xml version="1.0" encoding="utf-8"?>
<!-- Generator: Adobe Illustrator 16.0.0, SVG Export Plug-In . SVG Version: 6.00 Build 0)  -->
<!DOCTYPE svg PUBLIC "-//W3C//DTD SVG 1.1//EN" "http://www.w3.org/Graphics/SVG/1.1/DTD/svg11.dtd">
<svg version="1.1" id="Vrstva_1" xmlns="http://www.w3.org/2000/svg" xmlns:xlink="http://www.w3.org/1999/xlink" x="0px" y="0px"
	 width="79.93px" height="68.371px" viewBox="0 0 79.93 68.371" enable-background="new 0 0 79.93 68.371" xml:space="preserve">
<g>
	<defs>
		<rect id="SVGID_1_" width="79.93" height="68.371"/>
	</defs>
	<clipPath id="SVGID_2_">
		<use xlink:href="#SVGID_1_"  overflow="visible"/>
	</clipPath>
	<path clip-path="url(#SVGID_2_)" fill="#009FE3" d="M31.674,0.014v11.563c-3.367,1.01-7.738-0.983-9.735,1.014
		c-1.967,1.967-0.201,5.94-0.812,9.53h10.547c-0.364,3.964-0.822,7.839-1.217,11.768h-9.129
		c-0.473,10.885-0.066,22.648-0.201,33.871H7.133V33.888H0.032c0.132-3.859-0.265-8.246,0.205-11.768h6.692
		c0.168-8.968-0.084-16.253,5.476-19.876C16.84-0.644,23.892,0.127,31.674,0.014"/>
	<path clip-path="url(#SVGID_2_)" fill="#009FE3" d="M64.641,54.578c1.514-2.16,1.014-6.184,1.014-9.535
		c0-3.592,0.514-8.021-0.811-9.939c-2.474-3.575-8.879-1.41-11.969,0v21.502c0.125,0.01,0.241,0.027,0.205,0.199
		C57.773,56.341,62.225,58.013,64.641,54.578 M52.471,1.232c0.781,0.552,0.391,1.654,0.404,2.431c0.125,5.991-0.093,13.038,0,19.272
		c2.897-0.458,6.285-1.343,9.938-1.424c10.231-0.224,16.169,3.203,16.835,12.986c0.384,5.586,0.363,12.656,0,18.049
		c-0.4,5.977-2.325,9.969-6.489,12.576c-4.682,2.932-10.769,3.279-16.43,3.246c-5.962-0.033-11.751-0.814-17.848-1.828V3.463
		C43.516,2.826,47.979,2.011,52.471,1.232"/>
</g>
</svg>
