<?xml version="1.0" encoding="utf-8"?>
<!-- Generator: Adobe Illustrator 16.0.0, SVG Export Plug-In . SVG Version: 6.00 Build 0)  -->
<!DOCTYPE svg PUBLIC "-//W3C//DTD SVG 1.1//EN" "http://www.w3.org/Graphics/SVG/1.1/DTD/svg11.dtd">
<svg version="1.1" id="Vrstva_1" xmlns="http://www.w3.org/2000/svg" xmlns:xlink="http://www.w3.org/1999/xlink" x="0px" y="0px"
	 width="71.123px" height="71.124px" viewBox="0 0 71.123 71.124" enable-background="new 0 0 71.123 71.124" xml:space="preserve">
<g>
	<defs>
		<rect id="SVGID_1_" width="71.123" height="71.124"/>
	</defs>
	<clipPath id="SVGID_2_">
		<use xlink:href="#SVGID_1_"  overflow="visible"/>
	</clipPath>
	<path clip-path="url(#SVGID_2_)" fill="#009FE3" d="M55.783,21.964c1.27,0,2.539,0.01,3.807-0.001
		c2.174-0.018,3.456-1.31,3.463-3.476c0.004-2.367,0.006-4.733,0-7.1c-0.007-2.115-1.295-3.474-3.4-3.502
		c-2.536-0.037-5.073-0.035-7.61-0.005c-2.125,0.027-3.414,1.358-3.423,3.472c-0.008,2.385-0.008,4.771,0,7.158
		c0.009,2.145,1.268,3.421,3.417,3.452C53.284,21.981,54.535,21.967,55.783,21.964 M35.613,49.245
		c1.801,0.018,3.545-0.291,5.212-0.957c4.341-1.734,7.325-4.773,8.575-9.318c1.267-4.608,0.299-8.836-2.82-12.406
		c-3.684-4.217-8.454-5.723-13.926-4.675c-3.858,0.74-6.909,2.836-9.092,6.148c-3.321,5.044-2.907,11.518,1.021,16.135
		C27.447,47.542,31.192,49.176,35.613,49.245 M7.915,30.103c-0.014,0.288-0.037,0.549-0.037,0.809c-0.001,4.658,0,9.316,0,13.972
		c0,4.961,0.01,9.924-0.006,14.883c-0.007,2.029,1.405,3.205,3.172,3.201c16.302-0.029,32.603-0.018,48.905-0.018
		c1.992,0,3.124-1.133,3.124-3.135c0.002-9.693,0-19.387,0-29.081v-0.625h-6.238c0.065,0.266,0.112,0.483,0.172,0.698
		c1.075,3.983,0.938,7.951-0.327,11.853c-1.185,3.65-3.257,6.748-6.148,9.297c-2.75,2.426-5.887,4.082-9.446,4.945
		c-4.758,1.156-9.423,0.832-13.971-0.975c-2.426-0.965-4.604-2.346-6.547-4.102c-1.741-1.576-3.193-3.379-4.342-5.42
		c-0.998-1.77-1.722-3.648-2.162-5.643c-0.625-2.809-0.681-5.623-0.155-8.447c0.135-0.731,0.317-1.454,0.486-2.215H7.915z M0,63.17
		V7.952c0.058-0.213,0.129-0.423,0.172-0.638c0.579-2.856,2.089-5.039,4.74-6.299C5.901,0.545,7.012,0.33,8.067,0h54.99
		c0.161,0.041,0.32,0.092,0.485,0.124c3.549,0.693,6.007,2.656,7.138,6.15c0.178,0.549,0.297,1.118,0.443,1.678V63.17
		c-0.066,0.25-0.143,0.498-0.198,0.748c-0.751,3.395-2.754,5.668-6.065,6.752c-0.59,0.193-1.202,0.305-1.803,0.453H8.067
		c-0.162-0.043-0.324-0.092-0.488-0.125c-3.759-0.752-6.269-2.867-7.266-6.641C0.208,63.961,0.102,63.565,0,63.17"/>
</g>
</svg>
