<?xml version="1.0" encoding="utf-8"?>
<!-- Generator: Adobe Illustrator 16.0.0, SVG Export Plug-In . SVG Version: 6.00 Build 0)  -->
<!DOCTYPE svg PUBLIC "-//W3C//DTD SVG 1.1//EN" "http://www.w3.org/Graphics/SVG/1.1/DTD/svg11.dtd">
<svg version="1.1" id="Vrstva_1" xmlns="http://www.w3.org/2000/svg" xmlns:xlink="http://www.w3.org/1999/xlink" x="0px" y="0px"
	 width="308.911px" height="50.65px" viewBox="0 0 308.911 50.65" enable-background="new 0 0 308.911 50.65" xml:space="preserve">
<path fill="#009FE3" d="M4.116,4.147h300.656v42.391H4.116V4.147z M0,50.65h308.911V0.001H0V50.65z"/>
<g>
	<defs>
		<rect id="SVGID_1_" width="308.911" height="50.65"/>
	</defs>
	<clipPath id="SVGID_2_">
		<use xlink:href="#SVGID_1_"  overflow="visible"/>
	</clipPath>
	<path clip-path="url(#SVGID_2_)" fill="#E40521" d="M16.902,22.425v13.409h-5.125V11.881h7.314
		c1.681,5.455,3.391,11.002,5.1,16.546c0.093,0.01,0.186,0.02,0.279,0.029c0.789-2.715,1.581-5.43,2.365-8.147
		c0.722-2.5,1.403-5.013,2.181-7.496c0.132-0.42,0.648-1.006,1.008-1.022c2.197-0.095,4.4-0.047,6.682-0.047v24.052h-5.431V22.422
		c-0.079-0.008-0.159-0.015-0.239-0.021c-1.308,4.011-2.644,8.015-3.908,12.041c-0.337,1.074-0.812,1.547-2.039,1.523
		c-3.62-0.076-3.606-0.02-4.718-3.555c-1.051-3.344-2.141-6.674-3.214-10.009C17.072,22.408,16.987,22.416,16.902,22.425"/>
	<path clip-path="url(#SVGID_2_)" fill="#009FE3" d="M248.22,36.154c-0.003,0.023-0.005,0.045-0.008,0.068
		c-0.41,0-0.822,0.023-1.231-0.006c-0.86-0.059-1.674-0.109-1.812,1.076c-0.12,1.057,0.37,1.848,1.328,1.912
		c2.114,0.139,4.249,0.141,6.361-0.008c0.525-0.037,0.996-0.857,1.491-1.318c-0.565-0.445-1.077-1.15-1.707-1.279
		C251.198,36.3,249.697,36.285,248.22,36.154 M249.415,27.513c1.71,0.004,2.833-1.129,2.859-2.882
		c0.026-1.782-1.068-2.958-2.771-2.979c-1.79-0.021-2.941,1.143-2.953,2.984C246.539,26.337,247.708,27.511,249.415,27.513
		 M243.987,29.333c-2.093-1.805-3.095-3.881-2.282-6.597c0.847-2.826,2.962-4.084,5.651-4.47c2.562-0.367,5.099-0.241,7.394,1.26
		c0.264,0.173,0.829-0.009,1.211-0.147c1.174-0.426,2.324-0.911,3.688-1.455v4.311c-0.854,0.172-1.734,0.348-2.411,0.482
		c-0.171,1.373-0.11,2.695-0.522,3.847c-1.008,2.814-3.412,3.793-6.153,4.063c-1.064,0.105-2.153-0.076-3.23-0.057
		c-0.403,0.008-0.806,0.213-1.208,0.326c0.008,0.186,0.015,0.369,0.021,0.553c0.547,0.131,1.088,0.318,1.643,0.387
		c2.541,0.311,5.125,0.406,7.618,0.932c2.512,0.529,3.588,1.898,3.71,3.883c0.132,2.16-0.889,3.742-3.232,4.703
		c-3.533,1.445-7.23,1.275-10.92,0.879c-0.903-0.098-1.796-0.383-2.667-0.664c-1.335-0.428-2.189-1.348-2.326-2.77
		c-0.138-1.42,0.615-2.43,1.723-3.213c0.285-0.201,0.6-0.359,0.898-0.537C241.289,32.621,241.392,32.197,243.987,29.333"/>
	<path clip-path="url(#SVGID_2_)" fill="#009FE3" d="M197.033,23.321c2.041-0.168,3.894-0.174,5.685-0.512
		c1.668-0.313,2.335-1.576,2.239-3.511c-0.077-1.548-0.928-2.623-2.509-2.837c-1.471-0.199-2.971-0.245-4.453-0.206
		c-0.329,0.008-0.9,0.639-0.918,1.005C196.983,19.153,197.033,21.052,197.033,23.321 M197.097,35.83h-5.421V11.596
		c4.438,0.168,8.815,0.061,13.116,0.578c3.684,0.444,5.503,3.264,5.541,7.367c0.036,3.927-1.856,6.601-5.579,7.359
		c-2.445,0.496-4.976,0.566-7.657,0.85V35.83z"/>
	<path clip-path="url(#SVGID_2_)" fill="#E40521" d="M62.789,35.828c-0.428,0.045-0.675,0.092-0.922,0.094
		c-1.49,0.006-2.98,0.004-4.61,0.004V11.87h5.49v12.138c0.116,0.031,0.233,0.062,0.349,0.093c1.348-1.585,2.657-3.207,4.069-4.732
		c0.392-0.425,1.077-0.758,1.651-0.797c1.56-0.108,3.132-0.037,5.141-0.037c-1.777,2.023-3.192,3.754-4.741,5.354
		c-0.887,0.917-0.826,1.625-0.218,2.663c1.755,2.994,3.393,6.059,5.222,9.357c-1.921,0-3.639,0.045-5.351-0.039
		c-0.33-0.016-0.733-0.475-0.936-0.826c-1.076-1.859-2.099-3.748-3.41-6.113c-0.689,1.268-1.433,2.176-1.674,3.205
		C62.585,33.253,62.789,34.482,62.789,35.828"/>
	<path clip-path="url(#SVGID_2_)" fill="#E40521" d="M136.729,27.498c-1.574,0.553-3.054,0.922-4.367,1.609
		c-0.484,0.254-0.945,1.406-0.752,1.879c0.221,0.543,1.171,1.1,1.815,1.111C136.117,32.146,137.143,30.824,136.729,27.498
		 M142.549,35.851h-5.106c-0.158-0.555-0.317-1.115-0.516-1.811c-1.807,1.408-3.641,2.301-5.873,2.232
		c-2.351-0.072-4.399-1.355-4.903-3.252c-0.637-2.395,0.243-5.256,2.309-6.18c2.109-0.941,4.431-1.4,6.643-2.123
		c0.631-0.206,1.698-0.577,1.711-0.906c0.043-1.117-0.94-1.645-1.895-1.456c-1.58,0.313-3.112,0.885-4.648,1.396
		c-0.458,0.151-0.862,0.463-1.319,0.718c-0.785-1.092-1.499-2.086-2.256-3.14c1.834-1.87,4.064-2.771,6.541-3.079
		c1.1-0.139,2.229-0.105,3.341-0.064c4.652,0.171,5.779,3.047,5.95,6.838c0.09,2.004,0.02,4.016,0.021,6.023
		C142.55,32.576,142.549,34.105,142.549,35.851"/>
	<path clip-path="url(#SVGID_2_)" fill="#E40521" d="M49.294,27.476c-1.666,0.611-3.197,1.045-4.584,1.758
		c-0.428,0.221-0.779,1.326-0.593,1.801c0.198,0.504,1.063,1.016,1.661,1.047C48.548,32.218,49.674,30.894,49.294,27.476
		 M41.235,24.109c-0.488-0.659-1.244-1.68-2.055-2.775c1.823-1.83,4.008-2.742,6.424-3.084c1.2-0.17,2.447-0.15,3.662-0.06
		c4.353,0.321,5.538,2.841,5.742,6.425c0.126,2.208,0.022,4.429,0.021,6.644c0,1.477,0,2.951,0,4.549h-5.126
		c-0.159-0.504-0.321-1.018-0.357-1.135c-2.102,0.549-4.05,1.309-6.054,1.516c-2.298,0.238-4.209-1.209-4.814-3.09
		c-0.694-2.156,0.13-4.74,1.955-6.07c2.059-1.5,4.466-1.949,6.911-2.339c0.647-0.104,1.737-0.508,1.767-0.848
		c0.101-1.164-0.937-1.672-1.873-1.476C45.427,22.786,43.47,23.463,41.235,24.109"/>
	<path clip-path="url(#SVGID_2_)" fill="#E40521" d="M128.299,11.84v4.568h-10.404V21.9h7.366c0,1.396,0.077,2.665-0.055,3.912
		c-0.032,0.299-0.751,0.732-1.168,0.748c-1.998,0.08-4.001,0.037-6.187,0.037v9.232h-5.604V11.84H128.299z"/>
	<path clip-path="url(#SVGID_2_)" fill="#009FE3" d="M233.874,27.4c-1.521,0.494-2.933,0.906-4.309,1.412
		c-1.058,0.389-1.426,1.385-0.982,2.25c0.282,0.549,1.266,1.029,1.938,1.035C233.371,32.121,234.268,30.896,233.874,27.4
		 M234.461,35.845c-0.208-0.691-0.381-1.268-0.582-1.938c-1.729,1.469-3.584,2.43-5.884,2.336c-2.173-0.088-4.014-1.205-4.637-2.963
		c-0.775-2.191-0.067-4.777,1.68-6.117c2.12-1.625,4.635-2.084,7.188-2.429c0.593-0.081,1.181-0.203,1.787-0.31
		c-0.046-1.559-0.828-2.368-2.147-2.119c-1.966,0.371-3.877,1.034-6.104,1.655c-0.446-0.595-1.203-1.606-1.948-2.601
		c2.884-3.337,9.393-3.976,12.467-2.548c2.166,1.005,2.921,2.924,3.027,5.137c0.083,1.75,0.016,3.503,0.016,5.255
		c0,2.191,0,4.383,0,6.641H234.461z"/>
	<path clip-path="url(#SVGID_2_)" fill="#E40521" d="M84.935,25.298c-0.173-2.165-1.184-3.203-2.918-3.162
		c-1.728,0.04-2.908,1.274-2.972,3.162H84.935z M90.394,28.816h-5.83h-5.574c-0.261,1.475,0.357,2.473,1.448,3.041
		c2.74,1.426,5.015,0.049,7.352-1.523c0.722,1.111,1.428,2.199,2.121,3.266c-3.636,3.563-10.69,3.873-14.23,0.469
		c-1.099-1.057-1.96-2.703-2.245-4.207c-1.189-6.277,1.302-11.271,8.321-11.785c4.051-0.296,7.156,1.642,8.195,6.656
		C90.208,25.974,90.232,27.263,90.394,28.816"/>
	<path clip-path="url(#SVGID_2_)" fill="#E40521" d="M175.772,25.257c-0.497-2.319-1.37-3.155-3.159-3.095
		c-1.586,0.054-2.621,1.146-2.945,3.095H175.772z M180.886,28.83h-11.287c0.138,3.982,3.659,4.59,8.946,1.594
		c0.684,1.045,1.373,2.096,2.105,3.213c-2.454,2.264-5.367,2.9-8.447,2.762c-2.814-0.127-5.391-1.037-6.949-3.605
		c-1.99-3.279-2.012-6.793-0.414-10.16c1.541-3.244,4.598-4.643,7.979-4.576c4.907,0.096,7.468,2.695,8.057,8.234
		C180.955,27.046,180.886,27.82,180.886,28.83"/>
	<path clip-path="url(#SVGID_2_)" fill="#009FE3" d="M271.998,33.771c-1.959,2.031-4.197,2.748-6.799,2.48
		c-2.116-0.219-3.887-1.723-3.931-3.824c-0.097-4.572-0.029-9.149-0.029-13.845h5.299c0,1.024,0,2.086,0,3.147
		c0.001,2.626-0.024,5.252,0.01,7.879c0.024,1.789,0.732,2.395,2.502,2.262c2.012-0.15,3.088-1.313,3.089-3.348
		c0.003-3.285,0.001-6.569,0.001-9.958h5.425v17.22h-5.344C272.154,35.181,272.09,34.597,271.998,33.771"/>
	<path clip-path="url(#SVGID_2_)" fill="#009FE3" d="M291.425,25.314c-0.387-2.293-1.406-3.348-3.147-3.304
		c-1.664,0.043-2.757,1.176-3.105,3.304H291.425z M296.352,33.929c-1.794,0.768-3.438,1.861-5.207,2.125
		c-2.023,0.305-4.245,0.205-6.225-0.314c-3.771-0.988-5.821-4.762-5.405-9.432c0.61-6.874,6.767-9.438,11.976-7.636
		c1.256,0.434,2.421,1.542,3.283,2.616c1.396,1.741,1.928,5.006,1.534,7.456h-11.125c-0.206,1.441,0.33,2.49,1.382,3.088
		c2.758,1.574,5.105,0.162,7.531-1.375C294.78,31.511,295.439,32.525,296.352,33.929"/>
	<path clip-path="url(#SVGID_2_)" fill="#E40521" d="M103.178,18.085v4.435c-1.607,0.488-3.133,0.835-4.559,1.423
		c-1.111,0.459-1.598,1.397-1.552,2.729c0.104,3.021,0.033,6.049,0.033,9.168h-5.463V18.646h5.394
		c0.037,0.64,0.072,1.245,0.13,2.257C98.791,18.941,100.68,18.05,103.178,18.085"/>
	<path clip-path="url(#SVGID_2_)" fill="#E40521" d="M158.633,35.837h-5.563V18.625h5.489c0.045,0.613,0.088,1.196,0.109,1.501
		c1.817-0.809,3.654-1.627,5.762-2.565v4.852c-1.701,0.636-3.304,1.084-4.737,1.847c-0.55,0.292-0.989,1.293-1.013,1.989
		C158.573,29.378,158.633,32.515,158.633,35.837"/>
	<path clip-path="url(#SVGID_2_)" fill="#009FE3" d="M223.18,18.153v4.444c-1.435,0.347-2.843,0.547-4.139,1.041
		c-1.223,0.466-1.813,1.435-1.757,2.906c0.116,3.064,0.035,6.137,0.035,9.283h-5.456V18.605h5.371
		c0.057,0.608,0.113,1.202,0.193,2.06C219.062,19.026,220.833,17.949,223.18,18.153"/>
</g>
<rect x="145.059" y="18.631" fill="#E40521" width="5.318" height="17.23"/>
<g>
	<defs>
		<rect id="SVGID_3_" width="308.911" height="50.65"/>
	</defs>
	<clipPath id="SVGID_4_">
		<use xlink:href="#SVGID_3_"  overflow="visible"/>
	</clipPath>
	<path clip-path="url(#SVGID_4_)" fill="#E40521" d="M150.188,16.425c-1.485,0-3.013,0.024-4.538-0.021
		c-0.293-0.009-0.817-0.271-0.827-0.438c-0.07-1.22-0.069-2.448,0.004-3.667c0.011-0.181,0.507-0.427,0.805-0.476
		c0.499-0.081,1.02-0.029,1.532-0.03C150.702,11.787,151.316,12.688,150.188,16.425"/>
	<path clip-path="url(#SVGID_4_)" fill="#E40521" d="M182.729,19.116h0.241c0.283,0,0.512-0.094,0.512-0.323
		c0-0.202-0.147-0.336-0.471-0.336c-0.135,0-0.229,0.013-0.282,0.027V19.116z M182.715,20.366h-0.511v-2.205
		c0.201-0.04,0.484-0.067,0.847-0.067c0.417,0,0.605,0.067,0.768,0.161c0.12,0.094,0.214,0.27,0.214,0.484
		c0,0.242-0.188,0.431-0.456,0.512v0.026c0.214,0.081,0.336,0.241,0.403,0.538c0.066,0.336,0.106,0.471,0.162,0.551h-0.553
		c-0.066-0.08-0.107-0.282-0.175-0.537c-0.04-0.242-0.174-0.35-0.457-0.35h-0.242V20.366z M181.356,19.21
		c0,0.982,0.727,1.762,1.721,1.762c0.969,0,1.681-0.779,1.681-1.748c0-0.981-0.712-1.775-1.693-1.775S181.356,18.242,181.356,19.21
		 M185.323,19.21c0,1.25-0.981,2.232-2.259,2.232c-1.264,0-2.271-0.982-2.271-2.232c0-1.223,1.008-2.205,2.271-2.205
		C184.342,17.005,185.323,17.987,185.323,19.21"/>
</g>
</svg>
