<?xml version="1.0" encoding="utf-8"?>
<!-- Generator: Adobe Illustrator 16.0.0, SVG Export Plug-In . SVG Version: 6.00 Build 0)  -->
<!DOCTYPE svg PUBLIC "-//W3C//DTD SVG 1.1//EN" "http://www.w3.org/Graphics/SVG/1.1/DTD/svg11.dtd">
<svg version="1.1" id="Vrstva_1" xmlns="http://www.w3.org/2000/svg" xmlns:xlink="http://www.w3.org/1999/xlink" x="0px" y="0px"
	 width="136.795px" height="15.921px" viewBox="0 0 136.795 15.921" enable-background="new 0 0 136.795 15.921"
	 xml:space="preserve">
<g>
	<path d="M9.017,6.223v6.927L4.52,15.762l-3.021-1.749L0,11.424V2.771l2.998-1.726l4.52,2.589L9.017,6.223z M6.019,7.972L4.52,5.36
		L2.998,4.497v5.201l1.521,2.589l1.499,0.863V7.972z"/>
	<path d="M19.76,3.634v10.38l-2.998,1.749v-3.475l-3.021-5.202v3.475l-2.998,1.727V1.908l2.998-1.749l3.021,5.201L19.76,3.634z"/>
	<path d="M30.48,10.561v3.453l-2.998,1.749l-5.996-3.475V1.908l2.998-1.749v10.402l2.998,1.727L30.48,10.561z"/>
	<path d="M37.225,12.288l2.998,1.726l-2.998,1.749l-5.996-3.475l2.998-1.727V3.634l-2.998-1.726l2.998-1.749l5.996,3.475
		L37.225,5.36V12.288z"/>
	<path d="M50.444,3.634v10.38l-2.998,1.749v-3.475l-3.021-5.202v3.475l-2.998,1.727V1.908l2.998-1.749l3.021,5.201L50.444,3.634z"/>
	<path d="M55.168,10.561l5.996,3.453l-2.998,1.749l-5.996-3.475V1.908l2.998-1.749l5.996,3.475L58.166,5.36l-2.998-1.726V5.36
		l4.497,2.612l-2.998,1.726l-1.499-0.863V10.561z"/>
	<path d="M70.385,10.448l5.905,3.407v0.341l-2.998,1.726h-0.204l-5.996-3.452L67,12.288V1.908l0.091-0.182L70.09,0h0.204
		l5.996,3.475v0.318l-2.998,1.726h-0.204l-2.703-1.544v1.272l4.406,2.543v0.341l-2.998,1.726h-0.204l-1.204-0.704V10.448z
		 M69.999,5.247V3.748l-2.612-1.522v4.542L69.999,5.247z M69.999,8.949l-2.612-1.522v4.542l2.612-1.521V8.949z M67.568,1.908
		l5.633,3.225l2.612-1.499l-5.61-3.248L67.568,1.908z M74.314,7.972l-4.111-2.385l-2.635,1.499l4.134,2.385L74.314,7.972z
		 M75.813,14.036l-5.61-3.248l-2.635,1.5l5.633,3.247L75.813,14.036z"/>
	<path d="M85.057,3.543l1.499,2.589l0.022,0.091v6.927l-0.091,0.182l-4.497,2.589h-0.204l-4.497-2.589l-0.091-0.182V2.771
		l0.091-0.182l2.998-1.726h0.204l4.497,2.612L85.057,3.543z M77.584,12.833l2.612-1.522v-6.7l-2.612-1.521V12.833z M84.512,3.634
		l-4.133-2.385l-2.612,1.521L81.9,5.133L84.512,3.634z M80.378,11.651l-2.612,1.499l4.134,2.384l1.295-0.749v-1.521L80.378,11.651z
		 M80.583,11.311l2.612,1.522V8.018l-1.454-2.521l-1.159-0.659V11.311z M83.467,7.699l2.657-1.544L84.83,3.884l-2.68,1.544
		L83.467,7.699z M83.581,14.559l2.612-1.499V6.564l-2.612,1.499V14.559z"/>
	<path d="M93.778,12.174l2.907,1.681v0.341l-2.998,1.726h-0.205l-5.996-3.452v-0.341l2.907-1.681v-6.7l-2.907-1.681v-0.34L90.485,0
		h0.182l6.019,3.475v0.318l-2.907,1.681V12.174z M93.574,5.133l2.635-1.499l-5.633-3.248l-2.612,1.522L93.574,5.133z M90.394,13.695
		v-2.793l-2.43,1.386L90.394,13.695z M90.78,13.695l2.612-1.521v-6.7L90.78,3.975V13.695z M93.574,12.515l-2.612,1.499l2.612,1.521
		l2.635-1.521L93.574,12.515z"/>
	<path d="M100.092,0.863l6.019,3.475v0.318l-2.907,1.681v7.677l-0.091,0.182l-3.021,1.726l-0.272-0.159V4.61L96.913,2.93V2.589
		l2.998-1.726H100.092z M105.634,4.497l-5.633-3.248L97.39,2.771L103,6.019L105.634,4.497z M100.206,15.421l2.612-1.499V6.336
		l-2.612-1.499V15.421z"/>
	<path d="M112.856,12.174l2.907,1.681v0.341l-2.998,1.726h-0.204l-5.996-3.452v-0.341l2.907-1.681v-6.7l-2.907-1.681v-0.34
		L109.563,0h0.182l6.019,3.475v0.318l-2.907,1.681V12.174z M112.652,5.133l2.635-1.499l-5.633-3.248l-2.612,1.522L112.652,5.133z
		 M109.473,13.695v-2.793l-2.431,1.386L109.473,13.695z M109.858,13.695l2.612-1.521v-6.7l-2.612-1.499V13.695z M112.652,12.515
		l-2.612,1.499l2.612,1.521l2.635-1.521L112.652,12.515z"/>
	<path d="M124.531,3.543l1.499,2.589l0.022,0.091v6.927l-0.091,0.182l-4.497,2.589h-0.204l-2.998-1.726l-0.068-0.068l-1.499-2.612
		l-0.022-0.091V2.771l0.091-0.182l2.998-1.726h0.204l4.497,2.612L124.531,3.543z M117.059,11.083l2.612-1.499V4.61l-2.612-1.521
		V11.083z M118.444,13.764l2.657-1.544l-1.317-2.271l-2.657,1.544L118.444,13.764z M121.374,5.133l2.612-1.499l-4.134-2.385
		l-2.612,1.521L121.374,5.133z M122.669,13.264l-1.295-0.75l-2.635,1.521l2.635,1.499l1.295-0.749V13.264z M121.511,12.151
		l1.158,0.682V8.018l-1.454-2.521l-1.158-0.659v4.815L121.511,12.151z M124.304,3.884l-2.68,1.544l1.317,2.271l2.657-1.544
		L124.304,3.884z M123.055,14.559l2.612-1.499V6.564l-2.612,1.499V14.559z"/>
	<path d="M130.708,10.72l-2.998,1.749l-0.295-0.182V1.908l0.091-0.182L130.504,0l0.272,0.068l2.907,5.042l2.816-1.636l0.295,0.159
		v10.38l-0.091,0.182l-2.998,1.726l-0.295-0.159v-3.429l-2.612-4.52v2.748L130.708,10.72z M127.801,11.969l2.612-1.521V7.154
		l-2.612-4.542V11.969z M127.869,1.976l5.542,9.608V5.405l-2.885-4.974L127.869,1.976z M133.797,15.421l2.612-1.499V3.975
		l-2.612,1.499V15.421z"/>
</g>
</svg>
