<?xml version="1.0" encoding="utf-8"?>
<!-- Generator: Adobe Illustrator 16.0.0, SVG Export Plug-In . SVG Version: 6.00 Build 0)  -->
<!DOCTYPE svg PUBLIC "-//W3C//DTD SVG 1.1//EN" "http://www.w3.org/Graphics/SVG/1.1/DTD/svg11.dtd">
<svg version="1.1" id="Vrstva_1" xmlns="http://www.w3.org/2000/svg" xmlns:xlink="http://www.w3.org/1999/xlink" x="0px" y="0px"
	 width="1842.914px" height="477.423px" viewBox="0 0 1842.914 477.423" enable-background="new 0 0 1842.914 477.423"
	 xml:space="preserve">
<g>
	<path fill="#3ABDEF" d="M1750.29,465.845l-168.902-97.393l79.002-44.949l168.222,97.393L1750.29,465.845z M1660.39,11.578
		l168.222,97.391l-78.321,44.95l-168.902-96.71L1660.39,11.578z M1705.34,284.003l-123.952-71.513l79.002-44.95l123.272,71.512
		L1705.34,284.003z M1575.938,202.955V66.743l78.322,45.631v44.95L1575.938,202.955z M1654.261,313.286l-78.322,45.633V222.706
		l78.322,45.631V313.286z M1665.839,274.468l36.096,21.111h6.13l89.9-51.76v-10.216l-132.126-76.279v-38.139l81.046,46.312h6.13
		l89.899-51.76v-9.535L1663.115,0h-6.131l-89.899,51.76l-2.724,5.449v311.243l2.724,5.449l179.8,103.521h6.13l89.899-51.762v-10.215
		l-177.075-102.16V274.468z M1335.531,12.94l86.493,149.152v185.249L1255.847,59.252L1335.531,12.94z M1343.703,316.692v-82.409
		l78.321,135.532v102.84l8.854,4.768l89.9-51.762l2.724-5.447V108.969l-8.854-4.767l-84.451,49.036L1343.021,2.043L1334.849,0
		l-89.898,51.76l-2.726,5.449v311.243l8.854,5.449l89.899-52.441L1343.703,316.692z M1253.803,78.321l78.322,136.212v98.753
		l-78.322,45.633V78.321z M1433.603,164.135l78.322-44.95v298.304l-78.322,44.949V164.135z M953.464,57.209l78.322-45.631
		l168.902,97.391l-79.003,44.95L953.464,57.209z M1200.688,420.214l-79.003,45.631l-78.322-45.631l78.322-44.949L1200.688,420.214z
		 M1037.916,119.185l78.322,44.95v200.913l-78.322,45.631V119.185z M953.464,368.452l72.874-41.545v83.771L953.464,368.452z
		 M1127.815,164.135l87.175-50.398v-9.535L1034.51,0h-5.448l-89.899,51.76v10.216l87.176,50.398v200.912l-87.176,50.4v10.215
		l179.8,103.521h6.129l89.899-51.762v-10.215l-87.175-50.398V164.135z M913.971,417.489l-78.322,44.949v-90.58l78.322-44.951
		V417.489z M824.071,462.438l-162.773-93.986l79.003-44.949l83.771,48.355V462.438z M734.171,14.983v298.303l-78.321,45.633V60.614
		L734.171,14.983z M916.696,311.925l-86.495,49.717l-84.452-48.355V4.767L736.896,0l-89.899,51.76l-2.725,5.449v311.243l2.725,5.449
		l179.8,103.521h6.129l89.9-51.762l2.724-5.447V316.692L916.696,311.925z M415.44,12.94l86.495,149.152v185.249L335.757,59.252
		L415.44,12.94z M423.614,316.692v-82.409l78.321,135.532v102.84l8.854,4.768l89.899-51.762l2.725-5.447V108.969l-8.854-4.767
		l-84.452,49.036L422.933,2.043L414.76,0L324.86,51.76l-2.725,5.449v311.243l8.854,5.449l89.898-52.441L423.614,316.692z
		 M333.714,78.321l78.322,136.212v98.753l-78.322,45.633V78.321z M513.514,164.135l78.322-44.95v298.304l-78.322,44.949V164.135z
		 M179.8,443.368l-38.821,22.477l-79.002-44.949l79.002-45.631l38.821,22.473V443.368z M13.621,344.616l79.684-46.313l39.502,68.105
		l-79.684,46.313L13.621,344.616z M191.378,241.776l78.322-44.95v194.782l-78.322,44.951V241.776z M11.578,92.624L89.9,138.255
		v149.152l-78.322,44.949V92.624z M267.657,184.567l-79.685,46.313l-39.502-68.106l80.365-46.312L267.657,184.567z M233.604,104.202
		L98.754,25.88h-6.13l-89.9,51.76L0,83.089v259.484l0.681,2.725l44.95,78.32l2.043,2.043l89.9,51.762h6.13l134.85-77.641
		l2.725-5.449V186.61l-0.682-2.724l-44.95-77.641L233.604,104.202z M17.027,83.089l78.321-45.631l123.953,71.511l-78.322,44.95
		L17.027,83.089z M101.478,289.45V145.065l34.734,19.751l43.588,75.597v144.385l-34.734-20.432L101.478,289.45z"/>
</g>
</svg>
