<?xml version="1.0" encoding="utf-8"?>
<!-- Generator: Adobe Illustrator 16.0.0, SVG Export Plug-In . SVG Version: 6.00 Build 0)  -->
<!DOCTYPE svg PUBLIC "-//W3C//DTD SVG 1.1//EN" "http://www.w3.org/Graphics/SVG/1.1/DTD/svg11.dtd">
<svg version="1.1" id="Vrstva_1" xmlns="http://www.w3.org/2000/svg" xmlns:xlink="http://www.w3.org/1999/xlink" x="0px" y="0px"
	 width="61.025px" height="58.804px" viewBox="0 0 61.025 58.804" enable-background="new 0 0 61.025 58.804" xml:space="preserve">
<rect y="0.001" width="29.92" height="58.803"/>
<rect x="31.105" width="29.92" height="58.804"/>
<g>
	<defs>
		<rect id="SVGID_1_" width="61.025" height="58.804"/>
	</defs>
	<clipPath id="SVGID_2_">
		<use xlink:href="#SVGID_1_"  overflow="visible"/>
	</clipPath>
	<path clip-path="url(#SVGID_2_)" fill="#FFFFFF" d="M7.78,9.229c-0.262,0-0.467-0.02-0.634-0.052V6.706
		c0.144-0.022,0.402-0.053,0.74-0.053c0.583,0,1.56,0.161,1.56,1.237C9.446,8.742,8.839,9.229,7.78,9.229 M9.965,6.297
		C9.5,5.894,8.793,5.689,7.867,5.689c-0.671,0-1.277,0.049-1.804,0.146l-0.109,0.02v7.058h1.193v-2.75
		c0.197,0.028,0.406,0.041,0.612,0.041c0.954,0,1.766-0.282,2.289-0.798c0.4-0.408,0.601-0.935,0.601-1.567
		C10.648,7.213,10.407,6.665,9.965,6.297"/>
	<path clip-path="url(#SVGID_2_)" fill="#FFFFFF" d="M16.791,7.798c0,0.72-0.583,1.186-1.485,1.186h-0.814V6.701
		c0.133-0.024,0.385-0.057,0.782-0.057C15.967,6.645,16.791,6.845,16.791,7.798 M17.693,10.857c-0.176-0.701-0.488-1.145-0.93-1.38
		c0.756-0.332,1.231-0.984,1.231-1.772c0-0.567-0.222-1.081-0.609-1.409c-0.474-0.414-1.166-0.606-2.175-0.606
		c-0.623,0-1.314,0.06-1.804,0.157L13.3,5.867v7.046h1.192V9.917h0.739c0.759,0,1.117,0.336,1.319,1.243
		c0.217,0.971,0.364,1.492,0.483,1.689l0.038,0.063h1.251l-0.097-0.186C18.089,12.467,17.912,11.756,17.693,10.857"/>
	<path clip-path="url(#SVGID_2_)" fill="#FFFFFF" d="M24.624,9.782h-1.789c0.1-0.284,0.644-1.832,0.644-1.832
		c0.1-0.283,0.166-0.569,0.239-0.855c0.069,0.238,0.254,0.866,0.254,0.866S24.457,9.313,24.624,9.782 M23.096,5.739l-2.528,7.172
		h1.24c0,0,0.689-2.013,0.745-2.175h2.354c0.056,0.16,0.766,2.175,0.766,2.175h1.272l-2.541-7.172H23.096z"/>
</g>
<polygon fill="#FFFFFF" points="35.7,9.669 38.906,9.669 38.906,12.911 40.108,12.911 40.108,5.739 38.906,5.739 38.906,8.634 
	35.7,8.634 35.7,5.739 34.497,5.739 34.497,12.911 35.7,12.911 "/>
<g>
	<defs>
		<rect id="SVGID_3_" width="61.025" height="58.804"/>
	</defs>
	<clipPath id="SVGID_4_">
		<use xlink:href="#SVGID_3_"  overflow="visible"/>
	</clipPath>
	<path clip-path="url(#SVGID_4_)" fill="#FFFFFF" d="M46.998,9.782H45.21c0.099-0.284,0.644-1.832,0.644-1.832
		c0.102-0.286,0.166-0.57,0.238-0.855c0.071,0.243,0.254,0.866,0.254,0.866C46.348,7.961,46.831,9.313,46.998,9.782 M45.473,5.739
		l-2.53,7.172h1.241c0,0,0.689-2.013,0.744-2.175h2.354c0.056,0.16,0.767,2.175,0.767,2.175h1.271l-2.54-7.172H45.473z"/>
	<path clip-path="url(#SVGID_4_)" fill="#FFFFFF" d="M7.78,22.143c-0.262,0-0.467-0.021-0.634-0.054v-2.471
		c0.144-0.022,0.402-0.052,0.74-0.052c0.583,0,1.56,0.161,1.56,1.236C9.446,21.654,8.839,22.143,7.78,22.143 M9.965,19.208
		c-0.465-0.401-1.172-0.606-2.099-0.606c-0.671,0-1.277,0.05-1.804,0.146l-0.109,0.021v7.057h1.193v-2.751
		c0.197,0.03,0.406,0.042,0.612,0.042c0.954,0,1.766-0.284,2.289-0.797c0.4-0.408,0.601-0.936,0.601-1.568
		C10.648,20.124,10.407,19.577,9.965,19.208"/>
	<path clip-path="url(#SVGID_4_)" fill="#FFFFFF" d="M16.791,20.711c0,0.72-0.583,1.185-1.485,1.185h-0.814v-2.282
		c0.133-0.023,0.385-0.057,0.782-0.057C15.967,19.557,16.791,19.757,16.791,20.711 M17.693,23.769
		c-0.176-0.699-0.488-1.143-0.93-1.378c0.756-0.334,1.231-0.985,1.231-1.772c0-0.567-0.222-1.082-0.609-1.409
		c-0.474-0.413-1.166-0.607-2.175-0.607c-0.623,0-1.314,0.06-1.804,0.157L13.3,18.779v7.046h1.192v-2.996h0.739
		c0.759,0,1.117,0.338,1.319,1.242c0.217,0.972,0.364,1.493,0.483,1.689l0.038,0.064h1.251l-0.097-0.187
		C18.089,25.378,17.912,24.669,17.693,23.769"/>
	<path clip-path="url(#SVGID_4_)" fill="#FFFFFF" d="M24.624,22.694h-1.789c0.1-0.284,0.644-1.831,0.644-1.831
		c0.099-0.282,0.166-0.568,0.239-0.854c0.069,0.234,0.254,0.864,0.254,0.864C23.971,20.874,24.457,22.225,24.624,22.694
		 M23.096,18.652l-2.528,7.171h1.24c0,0,0.689-2.014,0.745-2.175h2.354c0.056,0.16,0.766,2.175,0.766,2.175h1.272l-2.541-7.171
		H23.096z"/>
	<path clip-path="url(#SVGID_4_)" fill="#FFFFFF" d="M37.598,22.909h1.447v1.846c-0.235,0.09-0.633,0.146-1.102,0.146
		c-1.624,0-2.635-1.021-2.635-2.663c0-1.637,1.055-2.651,2.752-2.651c0.615,0,1.102,0.09,1.529,0.284l0.141,0.063l0.313-0.975
		L39.94,18.91c-0.329-0.151-1.013-0.331-1.858-0.331c-2.404,0-4.019,1.487-4.019,3.699c0,1.08,0.379,2.052,1.04,2.667
		c0.693,0.641,1.604,0.949,2.777,0.949c1.125,0,2.016-0.296,2.262-0.387l0.085-0.033v-3.54h-2.63V22.909z"/>
	<path clip-path="url(#SVGID_4_)" fill="#FFFFFF" d="M43.417,18.647v4.202c0,1.987,0.962,3.082,2.709,3.082
		c1.81,0,2.848-1.134,2.848-3.112v-4.172h-1.202v4.233c0,1.353-0.559,2.067-1.613,2.067c-0.992,0-1.539-0.734-1.539-2.067v-4.233
		H43.417z"/>
</g>
<polygon fill="#FFFFFF" points="53.662,24.817 53.662,22.58 56.441,22.58 56.441,21.586 53.662,21.586 53.662,19.657 56.611,19.657 
	56.611,18.651 52.458,18.651 52.458,25.823 56.771,25.823 56.771,24.817 "/>
<g>
	<defs>
		<rect id="SVGID_5_" width="61.025" height="58.804"/>
	</defs>
	<clipPath id="SVGID_6_">
		<use xlink:href="#SVGID_5_"  overflow="visible"/>
	</clipPath>
	<path clip-path="url(#SVGID_6_)" fill="#FFFFFF" d="M7.78,35.052c-0.261,0-0.466-0.021-0.634-0.053v-2.473
		c0.149-0.021,0.403-0.051,0.74-0.051c0.583,0,1.56,0.162,1.56,1.234C9.446,34.564,8.839,35.052,7.78,35.052 M9.965,32.119
		c-0.465-0.404-1.172-0.607-2.099-0.607c-0.671,0-1.277,0.049-1.804,0.146l-0.109,0.02v7.057h1.193v-2.75
		c0.202,0.031,0.417,0.043,0.612,0.043c0.954,0,1.766-0.285,2.289-0.799c0.4-0.408,0.601-0.936,0.601-1.568
		C10.648,33.035,10.407,32.488,9.965,32.119"/>
	<path clip-path="url(#SVGID_6_)" fill="#FFFFFF" d="M16.791,33.621c0,0.719-0.583,1.184-1.485,1.184h-0.814v-2.281
		c0.133-0.025,0.385-0.059,0.782-0.059C15.967,32.464,16.791,32.666,16.791,33.621 M17.693,36.679
		c-0.176-0.701-0.488-1.145-0.93-1.379c0.756-0.334,1.231-0.986,1.231-1.773c0-0.566-0.222-1.08-0.609-1.408
		c-0.474-0.414-1.166-0.607-2.175-0.607c-0.624,0-1.315,0.061-1.805,0.156L13.3,31.689v7.045h1.192V35.74h0.739
		c0.759,0,1.117,0.336,1.319,1.24c0.217,0.973,0.364,1.494,0.483,1.691l0.038,0.063h1.251l-0.097-0.186
		C18.089,38.289,17.912,37.578,17.693,36.679"/>
	<path clip-path="url(#SVGID_6_)" fill="#FFFFFF" d="M24.624,35.603h-1.789c0.1-0.283,0.644-1.832,0.644-1.832
		c0.1-0.281,0.166-0.566,0.239-0.854c0.069,0.236,0.254,0.865,0.254,0.865S24.457,35.134,24.624,35.603 M23.096,31.56l-2.528,7.172
		h1.24c0,0,0.689-2.012,0.745-2.174h2.354c0.056,0.16,0.766,2.174,0.766,2.174h1.272l-2.541-7.172H23.096z"/>
	<path clip-path="url(#SVGID_6_)" fill="#FFFFFF" d="M37.598,35.82h1.447v1.846c-0.236,0.088-0.633,0.145-1.102,0.145
		c-1.624,0-2.635-1.021-2.635-2.662c0-1.637,1.055-2.652,2.752-2.652c0.617,0,1.102,0.09,1.529,0.283l0.141,0.064l0.313-0.975
		l-0.104-0.049c-0.328-0.152-1.011-0.33-1.856-0.33c-2.404,0-4.019,1.486-4.019,3.699c0,1.08,0.379,2.051,1.04,2.666
		c0.693,0.641,1.604,0.949,2.777,0.949c1.125,0,2.016-0.297,2.262-0.389l0.085-0.031v-3.541h-2.63V35.82z"/>
	<path clip-path="url(#SVGID_6_)" fill="#FFFFFF" d="M46.979,35.603h-1.788c0.1-0.283,0.645-1.832,0.645-1.832
		c0.097-0.275,0.174-0.553,0.244-0.832c0.074,0.252,0.248,0.844,0.248,0.844S46.812,35.134,46.979,35.603 M45.453,31.56
		l-2.528,7.172h1.241c0,0,0.688-2.012,0.744-2.174h2.354c0.056,0.16,0.765,2.174,0.765,2.174h1.272l-2.539-7.172H45.453z"/>
	<path clip-path="url(#SVGID_6_)" fill="#FFFFFF" d="M7.78,47.96c-0.261,0-0.466-0.018-0.634-0.051v-2.473
		c0.149-0.023,0.403-0.051,0.74-0.051c0.583,0,1.56,0.16,1.56,1.236C9.446,47.474,8.839,47.96,7.78,47.96 M9.965,45.029
		c-0.465-0.402-1.171-0.607-2.099-0.607c-0.668,0-1.275,0.049-1.804,0.146l-0.109,0.02v7.057h1.193v-2.75
		c0.202,0.029,0.417,0.041,0.612,0.041c0.954,0,1.766-0.283,2.289-0.797c0.4-0.408,0.601-0.936,0.601-1.568
		C10.648,45.945,10.407,45.396,9.965,45.029"/>
	<path clip-path="url(#SVGID_6_)" fill="#FFFFFF" d="M16.791,46.531c0,0.719-0.583,1.184-1.485,1.184h-0.814v-2.281
		c0.133-0.025,0.385-0.057,0.782-0.057C15.967,45.376,16.791,45.576,16.791,46.531 M17.693,49.589
		c-0.176-0.701-0.488-1.146-0.93-1.379c0.756-0.334,1.231-0.984,1.231-1.773c0-0.568-0.222-1.082-0.609-1.41
		c-0.474-0.412-1.165-0.605-2.175-0.605c-0.623,0-1.314,0.059-1.804,0.156L13.3,44.599v7.045h1.192v-2.996h0.739
		c0.759,0,1.117,0.338,1.319,1.244c0.213,0.957,0.366,1.492,0.483,1.689l0.038,0.063h1.251l-0.097-0.186
		C18.089,51.197,17.912,50.488,17.693,49.589"/>
	<path clip-path="url(#SVGID_6_)" fill="#FFFFFF" d="M24.624,48.513h-1.789c0.1-0.283,0.644-1.83,0.644-1.83
		c0.1-0.283,0.166-0.57,0.239-0.855c0.069,0.236,0.254,0.865,0.254,0.865S24.457,48.044,24.624,48.513 M23.096,44.472l-2.528,7.17
		h1.24c0,0,0.689-2.012,0.745-2.174h2.354c0.056,0.16,0.766,2.174,0.766,2.174h1.272l-2.541-7.17H23.096z"/>
	<path clip-path="url(#SVGID_6_)" fill="#FFFFFF" d="M37.598,48.728h1.447v1.848c-0.235,0.09-0.633,0.145-1.102,0.145
		c-1.624,0-2.635-1.02-2.635-2.662c0-1.637,1.055-2.652,2.752-2.652c0.615,0,1.102,0.09,1.529,0.285l0.141,0.063l0.313-0.975
		L39.94,44.73c-0.329-0.152-1.013-0.33-1.858-0.33c-2.404,0-4.019,1.486-4.019,3.699c0,1.078,0.379,2.051,1.04,2.666
		c0.693,0.639,1.604,0.949,2.777,0.949c1.125,0,2.016-0.297,2.262-0.387l0.085-0.033v-3.539h-2.63V48.728z"/>
</g>
</svg>
