<?xml version="1.0" encoding="utf-8"?>
<!-- Generator: Adobe Illustrator 16.0.0, SVG Export Plug-In . SVG Version: 6.00 Build 0)  -->
<!DOCTYPE svg PUBLIC "-//W3C//DTD SVG 1.1//EN" "http://www.w3.org/Graphics/SVG/1.1/DTD/svg11.dtd">
<svg version="1.1" id="Vrstva_1" xmlns="http://www.w3.org/2000/svg" xmlns:xlink="http://www.w3.org/1999/xlink" x="0px" y="0px"
	 width="85.991px" height="70.035px" viewBox="0 0 85.991 70.035" enable-background="new 0 0 85.991 70.035" xml:space="preserve">
<g>
	<defs>
		<rect id="SVGID_1_" width="85.991" height="70.035"/>
	</defs>
	<clipPath id="SVGID_2_">
		<use xlink:href="#SVGID_1_"  overflow="visible"/>
	</clipPath>
	<path clip-path="url(#SVGID_2_)" fill="#009FE3" d="M0,61.144c1.306,0.133,2.157,0.26,3.013,0.301
		c5.535,0.273,10.85-0.51,15.783-3.236c1.343-0.74,2.8-1.273,4.155-1.996c0.39-0.209,0.606-0.744,0.902-1.131
		c-0.372-0.225-0.718-0.525-1.119-0.666c-1.947-0.678-4.33-0.82-5.78-2.063c-3.185-2.73-6.444-5.627-7.381-10.33h5.101
		c0.032-0.166,0.064-0.332,0.097-0.498c-1.428-0.547-2.855-1.094-4.419-1.693c-0.324-0.457-0.818-1.279-1.433-2
		c-3.029-3.544-5.555-7.3-5.413-12.246c0.007-0.234,0.02-0.473,0.059-0.704c0.018-0.107,0.107-0.203,0.29-0.529
		c1.673,0.509,3.406,1.035,5.14,1.561C3.206,18.882,1.95,11.494,6.174,2.866c9.564,10.901,21.229,17.182,35.556,18.543
		c0-2.125-0.154-4.166,0.027-6.177C42.504,6.93,50.626,0.078,58.529,0.001c4.758-0.046,8.943,1.069,12.477,4.208
		c1.626,1.445,3.165,0.72,4.682,0.196c2.232-0.77,4.379-1.787,6.576-2.668c0.329-0.133,0.725-0.101,1.357-0.178
		c-0.961,3.304-2.741,5.76-5.182,8.121c2.834,0.906,4.822-1.356,7.552-1.256c-0.55,0.881-0.868,1.626-1.388,2.18
		c-1.914,2.039-3.832,4.083-5.885,5.977c-0.787,0.728-1.138,1.352-1.248,2.448c-0.469,4.611-0.613,9.342-1.818,13.772
		c-2.367,8.7-6.805,16.358-13.195,22.85c-5.16,5.242-11.16,9.166-18.064,11.504c-7.47,2.531-15.178,3.686-23.08,2.26
		c-2.923-0.527-5.969-0.74-8.724-1.742c-4.059-1.48-7.91-3.533-11.837-5.369C0.542,62.207,0.45,61.855,0,61.144"/>
</g>
</svg>
